<svg width="32" height="32" viewBox="0 0 32 32" fill="none" xmlns="http://www.w3.org/2000/svg">
<path d="M16.0001 17.3337C16.7365 17.3337 17.3334 16.7367 17.3334 16.0003C17.3334 15.2639 16.7365 14.667 16.0001 14.667C15.2637 14.667 14.6667 15.2639 14.6667 16.0003C14.6667 16.7367 15.2637 17.3337 16.0001 17.3337Z" stroke="white" stroke-width="1.5" stroke-linecap="round" stroke-linejoin="round"/>
<path d="M5.33325 10.6663V7.99967C5.33325 7.29243 5.6142 6.61415 6.1143 6.11406C6.6144 5.61396 7.29267 5.33301 7.99992 5.33301H10.6666" stroke="white" stroke-width="1.5" stroke-linecap="round" stroke-linejoin="round"/>
<path d="M5.33325 21.333V23.9997C5.33325 24.7069 5.6142 25.3852 6.1143 25.8853C6.6144 26.3854 7.29267 26.6663 7.99992 26.6663H10.6666" stroke="white" stroke-width="1.5" stroke-linecap="round" stroke-linejoin="round"/>
<path d="M21.3333 5.33301H23.9999C24.7072 5.33301 25.3854 5.61396 25.8855 6.11406C26.3856 6.61415 26.6666 7.29243 26.6666 7.99967V10.6663" stroke="white" stroke-width="1.5" stroke-linecap="round" stroke-linejoin="round"/>
<path d="M21.3333 26.6663H23.9999C24.7072 26.6663 25.3854 26.3854 25.8855 25.8853C26.3856 25.3852 26.6666 24.7069 26.6666 23.9997V21.333" stroke="white" stroke-width="1.5" stroke-linecap="round" stroke-linejoin="round"/>
</svg>
