<svg width="12" height="18" fill="none" xmlns="http://www.w3.org/2000/svg"><g clip-path="url(#a)"><path d="M6 9a2.97 2.97 0 1 1 5.939 0A2.97 2.97 0 0 1 6 9z" fill="#1ABCFE"/><path d="M.061 14.94a2.97 2.97 0 0 1 2.97-2.97H6v2.97a2.97 2.97 0 1 1-5.939 0z" fill="#0ACF83"/><path d="M6 .092V6.03h2.97a2.97 2.97 0 1 0 0-5.94H6z" fill="#FF7262"/><path d="M.061 3.061a2.97 2.97 0 0 0 2.97 2.97H6V.09H3.03a2.97 2.97 0 0 0-2.969 2.97z" fill="#F24E1E"/><path d="M.061 9a2.97 2.97 0 0 0 2.97 2.97H6V6.03H3.03A2.97 2.97 0 0 0 .061 9z" fill="#A259FF"/></g><defs><clipPath id="a"><path fill="#fff" d="M0 0h12v18H0z"/></clipPath></defs></svg>