<svg width="12" height="18" viewBox="0 0 12 18" fill="none" xmlns="http://www.w3.org/2000/svg">
<g clip-path="url(#clip0_371_3662)">
<path d="M6 8.99973C6 7.35977 7.32946 6.03027 8.96946 6.03027C10.6094 6.03027 11.9389 7.35977 11.9389 8.99973C11.9389 10.6397 10.6094 11.9692 8.96946 11.9692C7.32946 11.9692 6 10.6397 6 8.99973Z" fill="#1ABCFE"/>
<path d="M0.0610352 14.9392C0.0610352 13.2992 1.39051 11.9697 3.03049 11.9697H5.99995V14.9392C5.99995 16.5792 4.67049 17.9086 3.03049 17.9086C1.39051 17.9086 0.0610352 16.5792 0.0610352 14.9392Z" fill="#0ACF83"/>
<path d="M6 0.0917969V6.03069H8.96946C10.6095 6.03069 11.9389 4.70124 11.9389 3.06125C11.9389 1.42127 10.6095 0.0917969 8.96946 0.0917969H6Z" fill="#FF7262"/>
<path d="M0.0610352 3.06125C0.0610352 4.70124 1.39051 6.0307 3.03049 6.0307H5.99995V0.0917969H3.03049C1.39051 0.0917969 0.0610352 1.42127 0.0610352 3.06125Z" fill="#F24E1E"/>
<path d="M0.0610352 8.99973C0.0610352 10.6397 1.39051 11.9692 3.03049 11.9692H5.99995V6.03027H3.03049C1.39051 6.03027 0.0610352 7.35977 0.0610352 8.99973Z" fill="#A259FF"/>
</g>
<defs>
<clipPath id="clip0_371_3662">
<rect width="12" height="18" fill="white"/>
</clipPath>
</defs>
</svg>
