<svg width="520" height="520" fill="none" xmlns="http://www.w3.org/2000/svg"><path fill="#14291E" d="M0 0h520v520H0z"/><path d="M212.874 320.48c8.68 13.44 26.88 21.84 40.04 23.52 15.68 0 31.92-12.88 40.04-24.08 3.64-31.08-61.32-61.88-56.28-93.24 3.92-29.4 41.44-64.68 72.24-64.68 14.56 0 30.8 1.4 35.56 10.36l-7.84 24.64h-2.8c-12.6-10.36-29.12-22.68-38.08-22.68-18.2 0-29.12 9.52-38.64 20.44 0 48.44 56 66.36 56 93.52-5.32 30.52-37.24 64.96-78.68 74.48-13.16 3.08-41.72-10.08-42-24.64l20.44-17.64z" fill="#fff"/></svg>