<svg width="520" height="520" viewBox="0 0 520 520" fill="none" xmlns="http://www.w3.org/2000/svg">
<rect width="520" height="520" fill="#14291E"/>
<path d="M212.874 320.48C221.554 333.92 239.754 342.32 252.914 344C268.594 344 284.834 331.12 292.954 319.92C296.594 288.84 231.634 258.04 236.674 226.68C240.594 197.28 278.114 162 308.914 162C323.474 162 339.714 163.4 344.474 172.36L336.634 197H333.834C321.234 186.64 304.714 174.32 295.754 174.32C277.554 174.32 266.634 183.84 257.114 194.76C257.114 243.2 313.114 261.12 313.114 288.28C307.794 318.8 275.874 353.24 234.434 362.76C221.274 365.84 192.714 352.68 192.434 338.12L212.874 320.48Z" fill="white"/>
</svg>
